<svg width="32" height="35" viewBox="0 0 32 35" fill="none" xmlns="http://www.w3.org/2000/svg">
<path d="M3.04 28.6364L0.0799999 18.4148C-0.0266667 18.0966 -0.00666652 17.785 0.14 17.4801C0.286667 17.1752 0.52 16.9697 0.84 16.8636L3.2 16.0682V7.15909C3.2 6.49621 3.43333 5.93939 3.9 5.48864C4.36667 5.03788 4.93333 4.79924 5.6 4.77273H11.6V0H20.4V4.77273H26.4C27.0667 4.77273 27.6333 5.00473 28.1 5.46875C28.5667 5.93277 28.8 6.49621 28.8 7.15909V16.108L31.2 16.8636C31.4933 16.9697 31.7133 17.1686 31.86 17.4602C32.0067 17.7519 32.0267 18.0568 31.92 18.375L28.96 28.6364C27.68 28.5038 26.4867 28.1193 25.38 27.483C24.2733 26.8466 23.2933 26.0909 22.44 25.2159C21.5867 26.1705 20.62 26.9792 19.54 27.642C18.46 28.3049 17.28 28.6364 16 28.6364C14.72 28.6364 13.54 28.3049 12.46 27.642C11.38 26.9792 10.4133 26.1705 9.56 25.2159C8.70667 26.0909 7.72667 26.8466 6.62 27.483C5.51333 28.1193 4.32 28.5038 3.04 28.6364ZM0 35V32.6136H3.2C4.32 32.6136 5.42667 32.4413 6.52 32.0966C7.61333 31.7519 8.64 31.2614 9.6 30.625C10.56 31.2614 11.5867 31.7386 12.68 32.0568C13.7733 32.375 14.88 32.5341 16 32.5341C17.12 32.5341 18.2267 32.375 19.32 32.0568C20.4133 31.7386 21.44 31.2614 22.4 30.625C23.36 31.2614 24.3867 31.7519 25.48 32.0966C26.5733 32.4413 27.68 32.6136 28.8 32.6136H32V35H28.8C27.7067 35 26.6267 34.8608 25.56 34.5824C24.4933 34.304 23.44 33.8996 22.4 33.3693C21.36 33.8996 20.2933 34.304 19.2 34.5824C18.1067 34.8608 17.04 35 16 35C14.96 35 13.8933 34.8608 12.8 34.5824C11.7067 34.304 10.64 33.8996 9.6 33.3693C8.56 33.8996 7.50667 34.304 6.44 34.5824C5.37333 34.8608 4.29333 35 3.2 35H0ZM5.6 15.3125L16 11.9716L26.4 15.3523V7.15909H5.6V15.3125ZM16 26.25C17.36 26.25 18.5733 25.7064 19.64 24.6193C20.7067 23.5322 21.6267 22.5246 22.4 21.5966C23.0667 22.392 23.8067 23.1676 24.62 23.9233C25.4333 24.679 26.32 25.3352 27.28 25.892L29.32 18.7727L16 14.4773L2.64 18.7727L4.72 25.8125C5.65333 25.3087 6.54 24.679 7.38 23.9233C8.22 23.1676 8.96 22.392 9.6 21.5966C10.4 22.5511 11.32 23.5653 12.36 24.6392C13.4 25.7131 14.6133 26.25 16 26.25Z" fill="#ffffff"/>
</svg>
