<svg width="38" height="37" viewBox="0 0 38 37" fill="none" xmlns="http://www.w3.org/2000/svg">
<path d="M0 37L8.19954 13.5652L23.0557 28.5725L0 37ZM4.45244 32.4482L18.2947 27.4007L9.34571 18.2071L4.45244 32.4482ZM21.0278 20.5505L19.529 19.0183L30.1091 8.20219C31.0495 7.24076 32.2398 6.75254 33.6798 6.73752C35.1199 6.72249 36.3101 7.1957 37.2506 8.15713L38 8.92326L36.5012 10.4555L35.6636 9.59927C35.1052 9.02842 34.4586 8.73549 33.7239 8.72046C32.9892 8.70544 32.3279 8.99838 31.7401 9.59927L21.0278 20.5505ZM14.0186 13.5652L12.5197 12.0329L13.8422 10.6809C14.5182 9.98985 14.8341 9.20118 14.79 8.31486C14.7459 7.42854 14.43 6.68494 13.8422 6.08404L12.6079 4.82217L14.1067 3.28989L15.2529 4.46163C16.2815 5.5132 16.7885 6.82765 16.7738 8.40499C16.7591 9.98234 16.2374 11.2968 15.2088 12.3484L14.0186 13.5652ZM17.5893 17.0353L16.0905 15.503L22.7912 8.65286C23.3496 8.08201 23.6214 7.35343 23.6067 6.46711C23.592 5.5808 23.3055 4.85221 22.7471 4.28136L20.058 1.53228L21.5568 0L24.3341 2.83922C25.2452 3.80065 25.7154 5.00995 25.7448 6.46711C25.7742 7.92428 25.3186 9.13358 24.3782 10.095L17.5893 17.0353ZM24.5545 24.201L23.0557 22.6687L25.1276 20.5505C26.1562 19.499 27.3906 18.9582 28.8306 18.9281C30.2707 18.8981 31.505 19.4088 32.5336 20.4604L34.7819 22.7588L33.2831 24.2911L30.9907 21.9476C30.3148 21.2566 29.6094 20.9111 28.8747 20.9111C28.14 20.9111 27.4346 21.2566 26.7587 21.9476L24.5545 24.201Z" fill="#ffffff"/>
</svg>
