<svg width="34" height="34" viewBox="0 0 34 34" fill="none" xmlns="http://www.w3.org/2000/svg">
<path d="M27.4633 33.4827L15.3306 21.2559C14.6095 21.5067 13.8884 21.7105 13.1674 21.8672C12.4463 22.024 11.7095 22.1023 10.9571 22.1023C7.91609 22.1023 5.32964 21.0443 3.19779 18.9281C1.06593 16.8119 0 14.2333 0 11.1923C0 10.2204 0.125403 9.27201 0.37621 8.34716C0.627017 7.42231 0.987552 6.55233 1.45781 5.73721L8.27662 12.556L12.603 8.51176L5.59613 1.50484C6.41125 1.03458 7.2734 0.666206 8.18257 0.399724C9.09175 0.133241 10.0166 0 10.9571 0C14.0609 0 16.7022 1.08944 18.8811 3.26833C21.0599 5.44721 22.1494 8.08852 22.1494 11.1923C22.1494 11.9447 22.071 12.6814 21.9142 13.4025C21.7575 14.1236 21.5537 14.8446 21.3029 15.5657L33.4827 27.6985C33.8276 28.0433 34 28.4587 34 28.9447C34 29.4306 33.8276 29.846 33.4827 30.1909L29.9087 33.4827C29.5639 33.8276 29.1563 34 28.686 34C28.2158 34 27.8082 33.8276 27.4633 33.4827ZM28.7801 30.8022L30.6611 28.9212L17.823 16.083C18.3246 15.4246 18.7008 14.6487 18.9516 13.7552C19.2024 12.8617 19.3278 12.0074 19.3278 11.1923C19.3278 8.84094 18.4578 6.85016 16.7178 5.21992C14.9779 3.58967 12.9949 2.75887 10.769 2.72752L15.5187 7.57123C15.8008 7.85339 15.9419 8.19825 15.9419 8.60581C15.9419 9.01337 15.8008 9.35823 15.5187 9.64039L9.3112 15.4716C9.02904 15.7538 8.68419 15.8949 8.27662 15.8949C7.86906 15.8949 7.5242 15.7538 7.24205 15.4716L2.6805 10.9571C2.77455 13.3711 3.62886 15.3619 5.24343 16.9295C6.858 18.497 8.76256 19.2808 10.9571 19.2808C11.7409 19.2808 12.5717 19.1554 13.4495 18.9046C14.3273 18.6538 15.0954 18.2775 15.7538 17.7759L28.7801 30.8022Z" fill="#ffffff"/>
</svg>
